<mxfile host="Electron" modified="2023-04-24T05:53:31.645Z" agent="Mozilla/5.0 (Windows NT 10.0; Win64; x64) AppleWebKit/537.36 (KHTML, like Gecko) draw.io/21.2.1 Chrome/112.0.5615.87 Electron/24.1.2 Safari/537.36" etag="_azdY_qluEKr1RRe10PL" version="21.2.1" type="device">
  <diagram name="第 1 页" id="vIg1Jld6Sr7gV5gfOX3c">
    <mxGraphModel dx="978" dy="566" grid="1" gridSize="10" guides="1" tooltips="1" connect="1" arrows="1" fold="1" page="1" pageScale="1" pageWidth="827" pageHeight="1169" background="#ffffff" math="0" shadow="0">
      <root>
        <mxCell id="0" />
        <mxCell id="1" parent="0" />
        <mxCell id="L2NPAFNGkEbh4AgXRGGL-1" value="拥有权限者" style="shape=umlActor;verticalLabelPosition=bottom;verticalAlign=top;html=1;" vertex="1" parent="1">
          <mxGeometry x="200" y="370" width="30" height="60" as="geometry" />
        </mxCell>
        <mxCell id="L2NPAFNGkEbh4AgXRGGL-5" value="1级用户" style="shape=umlActor;verticalLabelPosition=bottom;verticalAlign=top;html=1;" vertex="1" parent="1">
          <mxGeometry x="80" y="300" width="30" height="60" as="geometry" />
        </mxCell>
        <mxCell id="L2NPAFNGkEbh4AgXRGGL-6" value="2级用户" style="shape=umlActor;verticalLabelPosition=bottom;verticalAlign=top;html=1;" vertex="1" parent="1">
          <mxGeometry x="80" y="430" width="30" height="60" as="geometry" />
        </mxCell>
        <mxCell id="L2NPAFNGkEbh4AgXRGGL-7" value="" style="endArrow=block;endSize=16;endFill=0;html=1;rounded=0;exitX=0.5;exitY=0.5;exitDx=0;exitDy=0;exitPerimeter=0;entryX=0.5;entryY=0.5;entryDx=0;entryDy=0;entryPerimeter=0;" edge="1" parent="1" source="L2NPAFNGkEbh4AgXRGGL-6" target="L2NPAFNGkEbh4AgXRGGL-1">
          <mxGeometry width="160" relative="1" as="geometry">
            <mxPoint x="220" y="430" as="sourcePoint" />
            <mxPoint x="380" y="430" as="targetPoint" />
          </mxGeometry>
        </mxCell>
        <mxCell id="L2NPAFNGkEbh4AgXRGGL-8" value="" style="endArrow=block;endSize=16;endFill=0;html=1;rounded=0;exitX=0.5;exitY=0.5;exitDx=0;exitDy=0;exitPerimeter=0;entryX=0.5;entryY=0.5;entryDx=0;entryDy=0;entryPerimeter=0;" edge="1" parent="1" source="L2NPAFNGkEbh4AgXRGGL-5" target="L2NPAFNGkEbh4AgXRGGL-1">
          <mxGeometry width="160" relative="1" as="geometry">
            <mxPoint x="230" y="440" as="sourcePoint" />
            <mxPoint x="390" y="440" as="targetPoint" />
          </mxGeometry>
        </mxCell>
        <mxCell id="L2NPAFNGkEbh4AgXRGGL-9" value="生成文档" style="ellipse;whiteSpace=wrap;html=1;" vertex="1" parent="1">
          <mxGeometry x="310" y="365" width="140" height="70" as="geometry" />
        </mxCell>
        <mxCell id="L2NPAFNGkEbh4AgXRGGL-10" value="生成在线文档" style="ellipse;whiteSpace=wrap;html=1;" vertex="1" parent="1">
          <mxGeometry x="490" y="295" width="140" height="70" as="geometry" />
        </mxCell>
        <mxCell id="L2NPAFNGkEbh4AgXRGGL-11" value="生成本地文档" style="ellipse;whiteSpace=wrap;html=1;" vertex="1" parent="1">
          <mxGeometry x="490" y="435" width="140" height="70" as="geometry" />
        </mxCell>
        <mxCell id="L2NPAFNGkEbh4AgXRGGL-12" value="" style="endArrow=block;endSize=16;endFill=0;html=1;rounded=0;exitX=0;exitY=0.5;exitDx=0;exitDy=0;entryX=1;entryY=0.5;entryDx=0;entryDy=0;" edge="1" parent="1" source="L2NPAFNGkEbh4AgXRGGL-10" target="L2NPAFNGkEbh4AgXRGGL-9">
          <mxGeometry width="160" relative="1" as="geometry">
            <mxPoint x="354" y="265" as="sourcePoint" />
            <mxPoint x="474" y="335" as="targetPoint" />
          </mxGeometry>
        </mxCell>
        <mxCell id="L2NPAFNGkEbh4AgXRGGL-13" value="" style="endArrow=block;endSize=16;endFill=0;html=1;rounded=0;exitX=0;exitY=0.5;exitDx=0;exitDy=0;entryX=1.012;entryY=0.463;entryDx=0;entryDy=0;entryPerimeter=0;" edge="1" parent="1" source="L2NPAFNGkEbh4AgXRGGL-11" target="L2NPAFNGkEbh4AgXRGGL-9">
          <mxGeometry width="160" relative="1" as="geometry">
            <mxPoint x="500" y="350" as="sourcePoint" />
            <mxPoint x="460" y="410" as="targetPoint" />
          </mxGeometry>
        </mxCell>
        <mxCell id="L2NPAFNGkEbh4AgXRGGL-14" value="" style="endArrow=none;html=1;rounded=0;exitX=0.5;exitY=0.5;exitDx=0;exitDy=0;exitPerimeter=0;entryX=0;entryY=0.5;entryDx=0;entryDy=0;" edge="1" parent="1" source="L2NPAFNGkEbh4AgXRGGL-1" target="L2NPAFNGkEbh4AgXRGGL-9">
          <mxGeometry width="50" height="50" relative="1" as="geometry">
            <mxPoint x="270" y="410" as="sourcePoint" />
            <mxPoint x="320" y="360" as="targetPoint" />
          </mxGeometry>
        </mxCell>
      </root>
    </mxGraphModel>
  </diagram>
</mxfile>
